<?xml version="1.0" encoding="utf-8"?>
<!-- Generator: Adobe Illustrator 16.0.0, SVG Export Plug-In . SVG Version: 6.00 Build 0)  -->
<!DOCTYPE svg PUBLIC "-//W3C//DTD SVG 1.1//EN" "http://www.w3.org/Graphics/SVG/1.1/DTD/svg11.dtd">
<svg version="1.1" id="Layer_1" xmlns="http://www.w3.org/2000/svg" xmlns:xlink="http://www.w3.org/1999/xlink" x="0px" y="0px"
	 width="264.139px" height="264.138px" viewBox="0 0 264.139 264.138" enable-background="new 0 0 264.139 264.138"
	 xml:space="preserve">
<g>
	<path fill="#004684" stroke="#004684" stroke-width="0.5" stroke-miterlimit="10" d="M23.373,246.428
		c0,2.241,0.609,3.954,2.994,3.954c2.193,0,3.346-1.472,3.346-4.035v-4.449c0-0.336-0.063-0.607-0.097-0.865
		c-0.08-0.576-0.625-0.801-1.375-0.88v-0.417h3.778v0.417c-0.769,0.079-1.298,0.304-1.378,0.88
		c-0.032,0.258-0.094,0.529-0.094,0.865v4.514c0,3.442-2.194,4.725-4.259,4.725c-3.412,0-4.468-1.73-4.468-4.627v-4.771
		c0-1.49,0.065-1.408-1.376-1.585v-0.417h4.306v0.417c-1.441,0.177-1.376,0.095-1.376,1.585V246.428z"/>
	<path fill="#004684" stroke="#004684" stroke-width="0.5" stroke-miterlimit="10" d="M41.082,250.942
		c-1.964-2.321-4.003-4.756-6.016-7.127v5.461c0,0.258,0.05,0.468,0.075,0.665c0.062,0.446,0.481,0.62,1.296,0.68v0.321h-3.026
		v-0.321c0.594-0.06,1-0.233,1.062-0.68c0.024-0.197,0.074-0.407,0.074-0.665v-5.82c-0.346-0.443-0.729-0.839-1.433-0.839v-0.322
		h2.248c1.841,2.236,3.756,4.51,5.596,6.746h0.024v-5.077c0-0.26-0.049-0.47-0.074-0.668c-0.062-0.445-0.482-0.617-1.297-0.679
		v-0.322h3.026v0.322c-0.581,0.062-1.001,0.233-1.062,0.679c-0.024,0.198-0.074,0.408-0.074,0.668v6.979H41.082z"/>
	<path fill="#004684" stroke="#004684" stroke-width="0.5" stroke-miterlimit="10" d="M47.42,249.397c0,1.15-0.05,1.088,1.062,1.224
		v0.321h-3.323v-0.321c1.112-0.136,1.062-0.073,1.062-1.224v-5.558c0-1.148,0.049-1.087-1.062-1.223v-0.322h3.323v0.322
		c-1.112,0.136-1.062,0.074-1.062,1.223V249.397z"/>
	<path fill="#004684" stroke="#004684" stroke-width="0.5" stroke-miterlimit="10" d="M53.744,242.617
		c-0.68,0-1.174,0.198-0.767,1.383c0.482,1.458,1.199,3.583,1.841,5.46c0.79-1.89,1.543-3.791,2.31-5.682
		c0.31-0.777-0.012-1.161-0.852-1.161v-0.322h2.668v0.322c-0.358,0-0.765,0.124-1.025,0.741c-1.038,2.531-2.087,5.054-3.125,7.584
		h-0.63c-0.753-2.135-1.593-4.522-2.346-6.621c-0.458-1.32-0.84-1.704-1.434-1.704v-0.322h3.361V242.617z"/>
	<path fill="#004684" stroke="#004684" stroke-width="0.5" stroke-miterlimit="10" d="M60.847,250.621
		c1.111-0.136,1.062-0.073,1.062-1.224v-5.558c0-1.148,0.049-1.087-1.062-1.223v-0.322h5.521v1.991h-0.321
		c-0.124-0.916-0.372-1.595-1.26-1.595h-1.681v3.53h1.038c0.777,0,1.11-0.306,1.136-1.074h0.321v2.633h-0.321
		c-0.026-0.729-0.309-1.162-1.136-1.162h-1.038v2.795c0,1.049,0.483,1.135,1.595,1.135c1.79,0,1.704-0.506,2.271-1.828h0.321
		l-0.37,2.223h-6.078V250.621z"/>
	<path fill="#004684" stroke="#004684" stroke-width="0.5" stroke-miterlimit="10" d="M69.184,242.295h3.597
		c1.247,0,2.493,0.655,2.493,2.101c0,1.273-0.775,2.149-1.729,2.521l1.211,1.84c0.618,0.901,1.311,1.767,1.741,2.026v0.159h-1.271
		c-0.729,0-1.126-1.346-2.621-3.831h-1.16v2.286c0,1.15-0.051,1.088,1.062,1.224v0.321h-3.324v-0.321
		c1.112-0.136,1.062-0.073,1.062-1.224v-5.558c0-1.148,0.05-1.087-1.062-1.223V242.295z M71.445,246.72h1.025
		c1.074,0,1.568-0.816,1.568-2.213c0-1.347-0.742-1.815-1.643-1.815h-0.951V246.72z"/>
	<path fill="#004684" stroke="#004684" stroke-width="0.5" stroke-miterlimit="10" d="M82.613,244.136
		c-0.101-0.863-0.57-1.557-1.557-1.557c-0.717,0-1.359,0.371-1.359,1.284c0,0.864,0.863,1.385,2.102,2.312
		c1.308,0.974,1.727,1.604,1.727,2.632c0,1.469-1.506,2.283-2.988,2.283c-0.791,0-1.469-0.148-2.112-0.395
		c-0.05-0.025-0.086-0.075-0.086-0.173v-1.778h0.321c0.136,1.369,1.037,1.914,1.988,1.914c0.878,0,1.593-0.668,1.593-1.568
		c0-0.804-0.431-1.459-2.285-2.682c-0.667-0.446-1.494-0.928-1.494-2.273c0-1.111,1.235-1.988,2.655-1.988
		c0.531,0,1.236,0.062,1.729,0.234c0.074,0.025,0.087,0.073,0.087,0.135v1.619H82.613z"/>
	<path fill="#004684" stroke="#004684" stroke-width="0.5" stroke-miterlimit="10" d="M88.012,249.397
		c0,1.15-0.049,1.088,1.061,1.224v0.321H85.75v-0.321c1.113-0.136,1.062-0.073,1.062-1.224v-5.558c0-1.148,0.051-1.087-1.062-1.223
		v-0.322h3.322v0.322c-1.109,0.136-1.061,0.074-1.061,1.223V249.397z"/>
	<path fill="#004684" stroke="#004684" stroke-width="0.5" stroke-miterlimit="10" d="M95.176,249.397
		c0,1.15-0.05,1.088,1.062,1.224v0.321h-3.324v-0.321c1.113-0.136,1.062-0.073,1.062-1.224v-6.706h-1.11
		c-1.075,0-1.321,0.679-1.73,1.494h-0.31l0.334-1.891h6.832l0.334,1.891h-0.31c-0.407-0.815-0.655-1.494-1.73-1.494h-1.11V249.397z"
		/>
	<path fill="#004684" stroke="#004684" stroke-width="0.5" stroke-miterlimit="10" d="M101.921,250.621
		c1.11-0.136,1.062-0.073,1.062-1.224v-1.9l-1.904-3.77c-0.407-0.803-0.753-1.11-1.32-1.11v-0.322h3.148v0.322
		c-0.937,0-0.852,0.469-0.544,1.11l1.497,3.102l1.704-3.102c0.42-0.753,0.023-1.11-0.705-1.11v-0.322h2.545v0.322
		c-0.346,0-0.68,0.16-1.013,0.753l-2.062,3.741c-0.124,0.249-0.15,0.595-0.15,0.905v1.381c0,1.15-0.047,1.088,1.063,1.224v0.321
		h-3.322V250.621z"/>
	<path fill="#004684" stroke="#004684" stroke-width="0.5" stroke-miterlimit="10" d="M113.029,247.982
		c0-2.097,1.809-5.237,4.483-5.237c2.131,0,2.592,1.442,2.592,2.883c0,1.76-1.408,5.508-4.466,5.508
		C113.589,251.136,113.029,249.486,113.029,247.982z M118.632,244.86c0-1.666-1.007-1.731-1.263-1.731
		c-1.73,0-2.867,3.105-2.867,5.189c0,0.832,0.146,2.336,1.33,2.336C117.657,250.654,118.632,247.645,118.632,244.86z"/>
	<path fill="#004684" stroke="#004684" stroke-width="0.5" stroke-miterlimit="10" d="M128.158,243.274l-0.384,0.336h-2.098
		c-0.783,3.811-2.065,8.887-2.977,11.319h-0.722l2.29-11.319h-1.52l0.143-0.672h1.505c0.85-3.41,3.666-3.764,4.338-3.764
		c0.368,0,1.138,0.065,1.378,0.289l-0.193,1.056l-0.399,0.192c-0.225-0.431-0.736-0.928-1.409-0.928
		c-0.961,0-1.681,0.656-2.066,2.385l-0.174,0.77h2.354L128.158,243.274z"/>
	<path fill="#004684" stroke="#004684" stroke-width="0.5" stroke-miterlimit="10" d="M137.923,248.942
		c0,1.488-0.062,1.408,1.377,1.586v0.414h-4.308v-0.414c1.442-0.178,1.378-0.098,1.378-1.586v-7.205c0-1.49,0.064-1.408-1.378-1.585
		v-0.417h4.195c2.658,0,3.971,1.057,3.971,2.98c0,2.305-2.081,3.553-4.53,3.406v-0.318c2.002,0.03,2.928-1.168,2.928-2.93
		c0-1.795-0.863-2.627-2.656-2.627h-0.977V248.942z"/>
	<path fill="#004684" stroke="#004684" stroke-width="0.5" stroke-miterlimit="10" d="M145.364,250.621
		c1.113-0.136,1.062-0.073,1.062-1.224v-5.558c0-1.148,0.051-1.087-1.062-1.223v-0.322h5.523v1.991h-0.322
		c-0.125-0.916-0.369-1.595-1.259-1.595h-1.68v3.53h1.036c0.779,0,1.113-0.306,1.138-1.074h0.32v2.633h-0.32
		c-0.024-0.729-0.31-1.162-1.138-1.162h-1.036v2.795c0,1.049,0.481,1.135,1.593,1.135c1.791,0,1.706-0.506,2.272-1.828h0.322
		l-0.372,2.223h-6.078V250.621z"/>
	<path fill="#004684" stroke="#004684" stroke-width="0.5" stroke-miterlimit="10" d="M161.621,250.942
		c-1.964-2.321-4.001-4.756-6.015-7.127v5.461c0,0.258,0.049,0.468,0.073,0.665c0.062,0.446,0.481,0.62,1.297,0.68v0.321h-3.024
		v-0.321c0.592-0.06,0.998-0.233,1.061-0.68c0.025-0.197,0.074-0.407,0.074-0.665v-5.82c-0.346-0.443-0.728-0.839-1.433-0.839
		v-0.322h2.247c1.842,2.236,3.756,4.51,5.597,6.746h0.024v-5.077c0-0.26-0.049-0.47-0.072-0.668c-0.062-0.445-0.481-0.617-1.3-0.679
		v-0.322h3.027v0.322c-0.578,0.062-1.001,0.233-1.061,0.679c-0.025,0.198-0.075,0.408-0.075,0.668v6.979H161.621z"/>
	<path fill="#004684" stroke="#004684" stroke-width="0.5" stroke-miterlimit="10" d="M172.69,250.942
		c-1.965-2.321-4.002-4.756-6.018-7.127v5.461c0,0.258,0.051,0.468,0.074,0.665c0.062,0.446,0.482,0.62,1.297,0.68v0.321h-3.023
		v-0.321c0.59-0.06,0.998-0.233,1.06-0.68c0.027-0.197,0.074-0.407,0.074-0.665v-5.82c-0.346-0.443-0.729-0.839-1.433-0.839v-0.322
		h2.248c1.842,2.236,3.756,4.51,5.596,6.746h0.026v-5.077c0-0.26-0.05-0.47-0.073-0.668c-0.062-0.445-0.481-0.617-1.301-0.679
		v-0.322h3.027v0.322c-0.578,0.062-1,0.233-1.06,0.679c-0.026,0.198-0.076,0.408-0.076,0.668v6.979H172.69z"/>
	<path fill="#004684" stroke="#004684" stroke-width="0.5" stroke-miterlimit="10" d="M180.73,244.136
		c-0.098-0.863-0.566-1.557-1.555-1.557c-0.717,0-1.36,0.371-1.36,1.284c0,0.864,0.865,1.385,2.1,2.312
		c1.312,0.974,1.731,1.604,1.731,2.632c0,1.469-1.507,2.283-2.989,2.283c-0.791,0-1.471-0.148-2.114-0.395
		c-0.047-0.025-0.086-0.075-0.086-0.173v-1.778h0.322c0.135,1.369,1.036,1.914,1.988,1.914c0.877,0,1.593-0.668,1.593-1.568
		c0-0.804-0.431-1.459-2.284-2.682c-0.667-0.446-1.494-0.928-1.494-2.273c0-1.111,1.233-1.988,2.653-1.988
		c0.532,0,1.238,0.062,1.731,0.234c0.075,0.025,0.085,0.073,0.085,0.135v1.619H180.73z"/>
	<path fill="#004684" stroke="#004684" stroke-width="0.5" stroke-miterlimit="10" d="M185.709,250.621
		c1.114-0.136,1.062-0.073,1.062-1.224v-1.9l-1.9-3.77c-0.408-0.803-0.754-1.11-1.323-1.11v-0.322h3.151v0.322
		c-0.939,0-0.854,0.469-0.544,1.11l1.494,3.102l1.704-3.102c0.419-0.753,0.026-1.11-0.703-1.11v-0.322h2.545v0.322
		c-0.348,0-0.682,0.16-1.012,0.753l-2.063,3.741c-0.125,0.249-0.148,0.595-0.148,0.905v1.381c0,1.15-0.051,1.088,1.06,1.224v0.321
		h-3.322V250.621z"/>
	<path fill="#004684" stroke="#004684" stroke-width="0.5" stroke-miterlimit="10" d="M193.22,250.621
		c1.112-0.136,1.062-0.073,1.062-1.224v-5.558c0-1.148,0.05-1.087-1.062-1.223v-0.322h3.323v0.322
		c-1.112,0.136-1.062,0.074-1.062,1.223v5.757c0,0.865,0.481,0.951,1.581,0.951c1.793,0,1.717-0.506,2.285-1.828h0.31l-0.372,2.223
		h-6.064V250.621z"/>
	<path fill="#004684" stroke="#004684" stroke-width="0.5" stroke-miterlimit="10" d="M203.969,242.617
		c-0.68,0-1.177,0.198-0.768,1.383c0.482,1.458,1.197,3.583,1.842,5.46c0.79-1.89,1.544-3.791,2.31-5.682
		c0.31-0.777-0.012-1.161-0.853-1.161v-0.322h2.669v0.322c-0.357,0-0.768,0.124-1.025,0.741c-1.039,2.531-2.088,5.054-3.127,7.584
		h-0.629c-0.754-2.135-1.596-4.522-2.348-6.621c-0.459-1.32-0.84-1.704-1.432-1.704v-0.322h3.36V242.617z"/>
	<path fill="#004684" stroke="#004684" stroke-width="0.5" stroke-miterlimit="10" d="M211.218,248.078l-0.567,1.653
		c-0.162,0.482,0.073,0.89,0.617,0.89v0.321h-2.246v-0.321c0.333,0,0.69-0.21,0.888-0.618c0.532-1.086,1.977-5.127,3.001-7.855
		h0.693c0.839,2.482,2.101,6.287,2.519,7.387c0.273,0.693,0.47,1.087,1.002,1.087v0.321h-2.879v-0.321
		c0.778,0,0.854-0.407,0.654-0.951l-0.53-1.592H211.218z M214.209,247.608l-1.312-4.016h-0.023l-1.47,4.016H214.209z"/>
	<path fill="#004684" stroke="#004684" stroke-width="0.5" stroke-miterlimit="10" d="M226.635,250.942
		c-1.964-2.321-4.004-4.756-6.015-7.127v5.461c0,0.258,0.047,0.468,0.073,0.665c0.062,0.446,0.482,0.62,1.298,0.68v0.321h-3.028
		v-0.321c0.594-0.06,1.002-0.233,1.063-0.68c0.024-0.197,0.074-0.407,0.074-0.665v-5.82c-0.346-0.443-0.729-0.839-1.433-0.839
		v-0.322h2.246c1.841,2.236,3.757,4.51,5.597,6.746h0.024v-5.077c0-0.26-0.047-0.47-0.073-0.668
		c-0.062-0.445-0.482-0.617-1.297-0.679v-0.322h3.027v0.322c-0.582,0.062-1.002,0.233-1.063,0.679
		c-0.023,0.198-0.074,0.408-0.074,0.668v6.979H226.635z"/>
	<path fill="#004684" stroke="#004684" stroke-width="0.5" stroke-miterlimit="10" d="M232.478,249.397
		c0,1.15-0.048,1.088,1.062,1.224v0.321h-3.322v-0.321c1.11-0.136,1.062-0.073,1.062-1.224v-5.558c0-1.148,0.048-1.087-1.062-1.223
		v-0.322h3.322v0.322c-1.11,0.136-1.062,0.074-1.062,1.223V249.397z"/>
	<path fill="#004684" stroke="#004684" stroke-width="0.5" stroke-miterlimit="10" d="M237.642,248.078l-0.569,1.653
		c-0.16,0.482,0.073,0.89,0.619,0.89v0.321h-2.249v-0.321c0.333,0,0.691-0.21,0.888-0.618c0.532-1.086,1.979-5.127,3.003-7.855
		h0.692c0.841,2.482,2.1,6.287,2.521,7.387c0.271,0.693,0.467,1.087,0.999,1.087v0.321h-2.878v-0.321
		c0.777,0,0.854-0.407,0.654-0.951l-0.529-1.592H237.642z M240.63,247.608l-1.309-4.016h-0.026l-1.468,4.016H240.63z"/>
</g>
<g>
	<path fill="#004684" stroke="#004684" stroke-width="0.5" stroke-miterlimit="10" d="M30.381,200.499
		c0,4.83,1.157,6.191,4.422,6.191v1.156H20.789v-1.156c2.722,0,4.422-0.885,4.422-6.056v-24.423c0-4.763-1.156-6.191-4.422-6.191
		v-1.156h14.219c10.749,0,15.103,5.715,15.103,11.089c0,6.464-4.898,10.069-13.743,10.069c-1.701,0-3.129-0.068-5.987-0.408V200.499
		z M30.381,187.845c1.769,0.613,2.79,0.681,4.831,0.681c5.783,0,9.457-3.13,9.457-8.437c0-4.149-2.313-9.729-9.457-9.729h-4.831
		V187.845z"/>
	<path fill="#004684" stroke="#004684" stroke-width="0.5" stroke-miterlimit="10" d="M55.433,193.151
		c-0.136,10.816,6.327,13.539,9.593,13.539c3.333,0,5.035-1.157,8.503-5.035v1.769c-2.926,3.742-5.714,5.171-9.932,5.171
		c-7.552,0-12.994-5.238-12.994-12.518s5.306-12.994,12.109-12.994c5.579,0,10.749,4.49,10.409,10.068H55.433z M68.562,191.995
		c0.205-5.307-3.401-7.484-6.462-7.484c-4.014,0-6.395,2.994-6.667,7.484H68.562z"/>
	<path fill="#004684" stroke="#004684" stroke-width="0.5" stroke-miterlimit="10" d="M84.483,203.288
		c0,2.653,0.816,3.402,4.015,3.402v1.156H75.775v-1.156c3.674,0,4.082-0.953,4.082-4.627v-13.13c0-3.538-0.885-3.946-4.967-3.946
		v-1.156l8.437-0.748h1.156v5.238c4.49-3.878,6.599-5.238,8.231-5.238c1.361,0,3.197,0.816,4.423,1.904l-1.837,4.287
		c-1.973-1.09-4.082-2.109-5.715-2.109c-1.564,0-2.926,0.816-5.103,2.925V203.288z"/>
	<path fill="#004684" stroke="#004684" stroke-width="0.5" stroke-miterlimit="10" d="M104.434,193.151
		c-0.136,10.816,6.327,13.539,9.593,13.539c3.334,0,5.035-1.157,8.504-5.035v1.769c-2.926,3.742-5.715,5.171-9.932,5.171
		c-7.552,0-12.995-5.238-12.995-12.518s5.307-12.994,12.11-12.994c5.578,0,10.749,4.49,10.408,10.068H104.434z M117.564,191.995
		c0.204-5.307-3.401-7.484-6.463-7.484c-4.014,0-6.395,2.994-6.668,7.484H117.564z"/>
	<path fill="#004684" stroke="#004684" stroke-width="0.5" stroke-miterlimit="10" d="M129.403,174.402
		c0-2.313-0.749-3.267-3.266-3.267h-1.565v-1.156l8.3-0.816h1.157v34.125c0,2.586,0.816,3.402,3.741,3.402h0.612v1.156H124.98
		v-1.156h1.225c2.449,0,3.198-1.021,3.198-4.559V174.402z"/>
	<path fill="#004684" stroke="#004684" stroke-width="0.5" stroke-miterlimit="10" d="M183.08,203.356
		c0,2.449,0.816,3.334,4.083,3.334v1.156h-12.791v-1.156c3.402,0,4.083-0.682,4.083-4.627v-11.43c0-3.129-2.042-4.966-5.239-4.966
		c-2.586,0-4.694,1.429-6.803,4.626v12.926c0,2.518,0.748,3.471,4.014,3.471v1.156h-12.654v-1.156c3.266,0,4.014-0.341,4.014-4.627
		v-11.157c0-3.606-2.517-5.238-5.102-5.238c-2.722,0-5.375,1.905-6.939,4.626v13.13c0,2.45,1.021,3.333,4.082,3.333v1.09h-12.791
		v-1.156c2.857,0,4.083-0.273,4.083-3.879v-14.286c0-2.653-1.156-3.538-3.334-3.538h-1.497v-1.156l8.3-0.748h1.157v5.033h0.136
		c1.974-3.061,5.375-5.033,8.572-5.033s6.326,1.769,7.552,5.442c2.584-3.605,5.646-5.442,8.912-5.442
		c3.401,0,8.163,1.973,8.163,8.164V203.356z"/>
	<path fill="#004684" stroke="#004684" stroke-width="0.5" stroke-miterlimit="10" d="M208.663,202.268
		c0,2.79,0.272,3.741,1.361,3.741c0.748,0,1.088-0.611,1.633-2.312h1.156c-0.204,2.994-1.973,4.898-4.694,4.898
		c-2.041,0-3.266-1.021-4.082-3.402c-2.381,2.586-3.945,3.402-6.463,3.402c-3.741,0-6.871-2.857-6.871-6.395
		c0-6.872,9.389-6.6,13.334-8.912v-1.77c0-3.402-1.973-5.851-5.374-5.851c-2.722,0-5.375,1.7-6.396,5.17l-1.225-0.34
		c1.021-4.49,4.558-7.415,8.912-7.415c4.015,0,8.708,2.312,8.708,8.844V202.268z M204.037,194.784
		c-4.558,1.973-8.64,1.904-8.64,6.803c0,2.449,1.7,4.422,3.674,4.422c1.429,0,4.014-1.02,4.966-3.061V194.784z"/>
	<path fill="#004684" stroke="#004684" stroke-width="0.5" stroke-miterlimit="10" d="M239.688,202.607
		c0,3.13,0.68,4.083,4.082,4.083v1.156h-12.858v-1.156c3.265,0,4.15-0.749,4.15-2.994V191.11c0-3.878-2.79-5.51-5.374-5.51
		c-2.382,0-4.491,1.496-6.872,4.693v11.77c0,3.674,0.477,4.627,4.082,4.627v1.156h-12.722v-1.156c3.197,0,4.014-0.273,4.014-4.627
		v-13.538c0-2.925-0.748-3.538-4.014-3.538v-1.156l7.483-0.748h1.156v4.83c2.857-3.266,5.646-4.83,8.708-4.83
		c4.015,0,8.164,2.857,8.164,8.64V202.607z"/>
</g>
<g>
	<path fill="#004684" stroke="#004684" stroke-width="0.5" stroke-miterlimit="10" d="M30.464,217.688h-0.568
		c-0.301-2.841-2.307-3.943-4.246-3.943c-2.006,0-3.443,1.103-3.443,2.874c0,3.544,4.88,4.479,7.622,7.222
		c1.337,1.336,1.671,2.539,1.671,3.811c0,3.008-2.44,5.449-5.449,5.449c-2.04,0-3.744-1.004-4.379-1.004
		c-0.334,0-0.568,0.234-0.735,0.735h-0.568v-5.181h0.568c0.034,3.543,2.942,4.713,4.613,4.713c2.307,0,3.844-1.338,3.844-3.41
		c0-3.309-5.148-4.847-7.288-6.986c-1.17-1.17-1.638-2.508-1.638-4.012c0-2.941,2.105-4.947,5.214-4.947
		c2.04,0,3.009,0.736,3.744,0.736c0.301,0,0.368-0.066,0.501-0.535h0.535V217.688z"/>
	<path fill="#004684" stroke="#004684" stroke-width="0.5" stroke-miterlimit="10" d="M44.173,224.642h-0.568
		c-0.502-2.139-2.005-3.51-3.978-3.51c-2.34,0-3.978,2.006-3.978,4.914c0,3.243,2.039,5.951,4.446,5.951
		c1.437,0,3.176-0.77,4.413-2.475v0.869C43.237,232.13,41.431,233,39.292,233c-3.51,0-5.95-2.44-5.95-5.985
		c0-3.643,2.741-6.551,6.118-6.551c1.771,0,2.741,0.668,3.343,0.668c0.3,0,0.602-0.233,0.802-0.668h0.568V224.642z"/>
	<path fill="#004684" stroke="#004684" stroke-width="0.5" stroke-miterlimit="10" d="M57.907,229.79
		c0,1.805,0.334,2.273,1.906,2.273v0.568h-6.151v-0.568c1.605,0,1.973-0.368,1.973-1.906v-5.85c0-1.57-0.936-2.573-2.373-2.573
		c-1.337,0-2.307,0.635-3.443,2.239v6.484c0,1.237,0.501,1.605,1.972,1.605v0.568h-6.352v-0.568
		c1.771-0.033,2.106-0.368,2.106-2.273v-15.41c0-1.538-0.435-1.771-2.106-1.771v-0.569l3.811-0.4h0.568v11.198
		c1.504-1.738,2.607-2.373,4.145-2.373c1.972,0,3.944,1.304,3.944,4.111V229.79z"/>
	<path fill="#004684" stroke="#004684" stroke-width="0.5" stroke-miterlimit="10" d="M67.336,233c-3.711,0-6.485-2.675-6.485-6.251
		c0-3.611,2.774-6.285,6.485-6.285c3.71,0,6.485,2.674,6.485,6.285C73.821,230.325,71.047,233,67.336,233z M67.336,221.132
		c-2.507,0-4.011,2.207-4.011,5.617c0,3.041,1.271,5.582,4.011,5.582c2.808,0,4.011-2.708,4.011-5.582
		C71.348,223.772,70.077,221.132,67.336,221.132z"/>
	<path fill="#004684" stroke="#004684" stroke-width="0.5" stroke-miterlimit="10" d="M82.315,233c-3.711,0-6.485-2.675-6.485-6.251
		c0-3.611,2.774-6.285,6.485-6.285c3.71,0,6.485,2.674,6.485,6.285C88.801,230.325,86.025,233,82.315,233z M82.315,221.132
		c-2.507,0-4.011,2.207-4.011,5.617c0,3.041,1.27,5.582,4.011,5.582c2.809,0,4.012-2.708,4.012-5.582
		C86.327,223.772,85.057,221.132,82.315,221.132z"/>
	<path fill="#004684" stroke="#004684" stroke-width="0.5" stroke-miterlimit="10" d="M92.581,214.213
		c0-1.138-0.368-1.604-1.604-1.604h-0.77v-0.569l4.079-0.4h0.567v18.753c0,1.271,0.402,1.672,1.839,1.672h0.302v0.568h-6.586v-0.568
		h0.602c1.203,0,1.571-0.502,1.571-2.24V214.213z"/>
	<path fill="#004684" stroke="#004684" stroke-width="0.5" stroke-miterlimit="10" d="M112.173,233c-3.71,0-6.485-2.675-6.485-6.251
		c0-3.611,2.775-6.285,6.485-6.285c3.711,0,6.485,2.674,6.485,6.285C118.658,230.325,115.884,233,112.173,233z M112.173,221.132
		c-2.507,0-4.011,2.207-4.011,5.617c0,3.041,1.27,5.582,4.011,5.582c2.809,0,4.012-2.708,4.012-5.582
		C116.185,223.772,114.914,221.132,112.173,221.132z"/>
	<path fill="#004684" stroke="#004684" stroke-width="0.5" stroke-miterlimit="10" d="M124.411,230.292
		c0,1.337,0.602,1.771,1.705,1.771h0.567v0.568h-6.719v-0.568h0.535c1.203,0,1.638-0.435,1.638-1.571V221.7H120.5v-0.568
		c0.802-0.334,1.136-0.467,1.638-0.802v-2.34c0-2.875,1.371-6.352,5.081-6.352c1.304,0,2.541,0.368,3.343,0.97l-1.136,2.975h-0.568
		c0.167-2.239-0.836-3.242-2.24-3.242c-1.304,0-2.206,0.969-2.206,2.774v5.716h2.941v0.869h-2.941V230.292z"/>
	<path fill="#004684" stroke="#004684" stroke-width="0.5" stroke-miterlimit="10" d="M158.677,214.045
		c-1.638,0.034-2.272,1.171-2.139,2.976l0.97,11.801c0.2,2.34,0.602,3.074,2.373,3.242v0.568h-6.886v-0.568
		c1.57-0.268,2.105-0.969,1.972-2.875l-0.937-12.369h-0.066l-6.552,15.812h-0.501l-6.419-15.812h-0.066l-1.07,11.801
		c-0.167,1.939,0.535,3.075,2.475,3.443v0.568h-5.95v-0.568c1.938-0.268,2.239-1.404,2.439-3.51l1.17-13.172
		c-0.734-0.802-1.403-1.169-2.506-1.337v-0.567h4.847l6.117,15.076l6.218-15.076h4.512V214.045z"/>
	<path fill="#004684" stroke="#004684" stroke-width="0.5" stroke-miterlimit="10" d="M164.065,225.411
		c-0.066,5.314,3.109,6.652,4.713,6.652c1.639,0,2.475-0.568,4.18-2.475v0.869c-1.438,1.84-2.809,2.542-4.882,2.542
		c-3.71,0-6.384-2.574-6.384-6.151c0-3.576,2.607-6.385,5.95-6.385c2.741,0,5.281,2.206,5.114,4.947H164.065z M170.518,224.843
		c0.1-2.607-1.672-3.677-3.176-3.677c-1.973,0-3.143,1.47-3.276,3.677H170.518z"/>
	<path fill="#004684" stroke="#004684" stroke-width="0.5" stroke-miterlimit="10" d="M186.532,230.325
		c0,1.304,0.468,1.738,1.973,1.738v0.568h-6.887c-5.015,0-6.887-3.377-6.887-6.15c0-3.344,2.475-6.018,5.549-6.018
		c1.271,0,2.475,0.435,3.979,1.438v-7.254c0-1.705-0.4-2.039-1.571-2.039h-0.669v-0.569l3.945-0.4h0.568V230.325z M184.259,223.171
		c-0.937-1.27-2.24-2.005-3.443-2.005c-2.14,0-3.609,1.938-3.609,4.813c0,2.842,1.303,6.117,5.181,6.117
		c1.337,0,1.872-0.535,1.872-1.805V223.171z"/>
	<path fill="#004684" stroke="#004684" stroke-width="0.5" stroke-miterlimit="10" d="M193.688,230.426
		c0,1.169,0.301,1.638,1.972,1.638v0.568h-6.484v-0.568c1.805,0,2.239-0.234,2.239-1.638v-7.255c0-1.638-0.501-1.771-2.239-1.771
		v-0.568l3.944-0.367h0.568V230.426z M194.022,215.784c0,0.802-0.635,1.471-1.438,1.471c-0.802,0-1.471-0.669-1.471-1.471
		c0-0.803,0.669-1.438,1.471-1.438C193.388,214.347,194.022,214.981,194.022,215.784z"/>
	<path fill="#004684" stroke="#004684" stroke-width="0.5" stroke-miterlimit="10" d="M208.03,224.642h-0.567
		c-0.502-2.139-2.007-3.51-3.979-3.51c-2.34,0-3.979,2.006-3.979,4.914c0,3.243,2.04,5.951,4.446,5.951
		c1.438,0,3.176-0.77,4.412-2.475v0.869c-1.27,1.738-3.075,2.608-5.214,2.608c-3.51,0-5.951-2.44-5.951-5.985
		c0-3.643,2.741-6.551,6.118-6.551c1.771,0,2.741,0.668,3.343,0.668c0.301,0,0.602-0.233,0.803-0.668h0.567V224.642z"/>
	<path fill="#004684" stroke="#004684" stroke-width="0.5" stroke-miterlimit="10" d="M213.549,230.426
		c0,1.169,0.302,1.638,1.973,1.638v0.568h-6.485v-0.568c1.806,0,2.239-0.234,2.239-1.638v-7.255c0-1.638-0.501-1.771-2.239-1.771
		v-0.568l3.944-0.367h0.568V230.426z M213.884,215.784c0,0.802-0.635,1.471-1.438,1.471s-1.472-0.669-1.472-1.471
		c0-0.803,0.669-1.438,1.472-1.438S213.884,214.981,213.884,215.784z"/>
	<path fill="#004684" stroke="#004684" stroke-width="0.5" stroke-miterlimit="10" d="M228.76,230.058
		c0,1.537,0.335,2.006,2.007,2.006v0.568h-6.319v-0.568c1.605,0,2.04-0.368,2.04-1.471v-6.184c0-1.906-1.371-2.709-2.641-2.709
		c-1.171,0-2.207,0.736-3.377,2.307v5.783c0,1.805,0.234,2.273,2.006,2.273v0.568h-6.251v-0.568c1.571,0,1.972-0.134,1.972-2.273
		v-6.652c0-1.438-0.366-1.738-1.972-1.738v-0.568l3.677-0.367h0.568v2.373c1.404-1.604,2.775-2.373,4.279-2.373
		c1.973,0,4.011,1.404,4.011,4.245V230.058z"/>
	<path fill="#004684" stroke="#004684" stroke-width="0.5" stroke-miterlimit="10" d="M234.446,225.411
		c-0.066,5.314,3.108,6.652,4.713,6.652c1.639,0,2.474-0.568,4.179-2.475v0.869c-1.438,1.84-2.809,2.542-4.88,2.542
		c-3.712,0-6.386-2.574-6.386-6.151c0-3.576,2.607-6.385,5.95-6.385c2.741,0,5.282,2.206,5.115,4.947H234.446z M240.897,224.843
		c0.101-2.607-1.671-3.677-3.176-3.677c-1.972,0-3.142,1.47-3.275,3.677H240.897z"/>
</g>
<path fill="none" stroke="#000000" stroke-width="0.4715" stroke-miterlimit="3.8636" d="M132.069,10.993"/>
<path fill="none" stroke="#000000" stroke-width="0.4715" stroke-miterlimit="3.8636" d="M132.069,11.412"/>
<path fill="none" stroke="#000000" stroke-width="0.4715" stroke-miterlimit="3.8636" d="M132.069,11.077"/>
<g>
	<path fill="none" stroke="#000000" stroke-width="0.8474" stroke-miterlimit="3.8636" d="M194.238,10.607"/>
	<path fill="#FFFFFF" d="M66.837,11.194h130.52c0,0,0,64.118,0,65.247c-0.886,53.186-60.487,81.141-67.983,80.885
		c-7.797-0.266-62.713-27.621-62.548-81.163C66.827,75.201,66.837,11.194,66.837,11.194z"/>
	<path fill="#A90533" stroke="#A90533" stroke-width="0.9067" stroke-miterlimit="3.8636" d="M66.825,50.845
		c0.188,0.189,0.008-39.643,0.008-39.643h130.424c0,0,0,21.363,0,39.645L66.825,50.845z"/>
	<path fill="#004684" stroke="#004684" stroke-width="0.9061" stroke-miterlimit="3.8636" d="M74.133,108.882
		c5.016,10.545,11.219,19.036,19.927,26.259l37.977-38.396l36.556,37.496c7.535-6.891,14.876-15.234,20.138-25.119l-56.738-54.582
		l-57.6,54.456L74.133,108.882z"/>
	<path fill="none" stroke="#000000" stroke-width="0.8474" stroke-miterlimit="3.8636" d="M98.29,10.11"/>
	<path fill="none" stroke="#000000" stroke-width="0.8474" stroke-miterlimit="3.8636" d="M94.314,10.523"/>
	<path fill="none" stroke="#000000" stroke-width="0.8474" stroke-miterlimit="3.8636" d="M69.287,10.523"/>
	<path fill="none" stroke="#000000" stroke-width="0.8474" stroke-miterlimit="3.8636" d="M77.909,10.862"/>
	<path fill="none" stroke="#000000" stroke-width="0.8474" stroke-miterlimit="3.8636" d="M86.376,10.523"/>
	<path fill="none" stroke="#000000" stroke-width="0.8474" stroke-miterlimit="3.8636" d="M169.42,10.523"/>
	<path fill="none" stroke="#000000" stroke-width="0.8474" stroke-miterlimit="3.8636" d="M177.556,11.202"/>
	<path fill="none" stroke="#000000" stroke-width="0.8474" stroke-miterlimit="3.8636" d="M185.827,11.031"/>
	<path fill="none" stroke="#000000" stroke-width="0.8474" stroke-miterlimit="3.8636" d="M90.654,10.182"/>
	<path fill="none" stroke="#000000" stroke-width="0.8474" stroke-miterlimit="3.8636" d="M82.187,10.523"/>
	<path fill="none" stroke="#000000" stroke-width="0.8474" stroke-miterlimit="3.8636" d="M73.564,10.182"/>
	<path fill="none" stroke="#000000" stroke-width="0.8474" stroke-miterlimit="3.8636" d="M132.065,41.618"/>
	<path fill="none" stroke="#000000" stroke-width="0.8474" stroke-miterlimit="3.8636" d="M115.705,44.677"/>
	<path fill="none" stroke="#000000" stroke-width="0.8474" stroke-miterlimit="3.8636" d="M107.369,46.716"/>
	<path fill="none" stroke="#000000" stroke-width="0.8474" stroke-miterlimit="3.8636" d="M140.887,46.036"/>
	<path fill="none" stroke="#000000" stroke-width="0.8474" stroke-miterlimit="3.8636" d="M190.106,10.692"/>
	<path fill="none" stroke="#000000" stroke-width="0.8474" stroke-miterlimit="3.8636" d="M173.699,10.182"/>
	<path fill="none" stroke="#000000" stroke-width="0.8474" stroke-miterlimit="3.8636" d="M148.646,47.226"/>
	<path fill="none" stroke="#000000" stroke-width="0.8474" stroke-miterlimit="3.8636" d="M181.835,10.862"/>
	<path fill="none" stroke="#000000" stroke-width="0.8474" stroke-miterlimit="3.8636" d="M165.231,10.182"/>
	
		<line fill="none" stroke="#004684" stroke-width="0.9067" stroke-miterlimit="3.8636" x1="66.825" y1="51.115" x2="197.248" y2="51.097"/>
	<path fill="none" stroke="#000000" stroke-width="0.8474" stroke-miterlimit="3.8636" d="M127.887,39.483"/>
	<path fill="none" stroke="#000000" stroke-width="0.8474" stroke-miterlimit="3.8636" d="M111.427,47.056"/>
	<path fill="none" stroke="#000000" stroke-width="0.8474" stroke-miterlimit="3.8636" d="M119.497,40.769"/>
	<path fill="none" stroke="#000000" stroke-width="0.8474" stroke-miterlimit="3.8636" d="M102.637,10.523"/>
	<path fill="none" stroke="#000000" stroke-width="0.8474" stroke-miterlimit="3.8636" d="M152.354,30.744"/>
	<path fill="none" stroke="#000000" stroke-width="0.8474" stroke-miterlimit="3.8636" d="M144.37,46.886"/>
	<path fill="none" stroke="#000000" stroke-width="0.8474" stroke-miterlimit="3.8636" d="M123.899,38.759"/>
	<path fill="none" stroke="#000000" stroke-width="0.8474" stroke-miterlimit="3.8636" d="M141.162,29.724"/>
	<path fill="none" stroke="#000000" stroke-width="0.8474" stroke-miterlimit="3.8636" d="M156.685,44.846"/>
	<path fill="none" stroke="#000000" stroke-width="0.8474" stroke-miterlimit="3.8636" d="M148.815,34.992"/>
	<path fill="none" stroke="#000000" stroke-width="0.8474" stroke-miterlimit="3.8636" d="M136.707,43.829"/>
	<path fill="none" stroke="#000000" stroke-width="0.8474" stroke-miterlimit="3.8636" d="M152.323,46.8"/>
	<path fill="none" stroke="#000000" stroke-width="0.8474" stroke-miterlimit="3.8636" d="M144.966,38.147"/>
	<path fill="none" stroke="#000000" stroke-width="0.4533" stroke-miterlimit="3.8636" d="M91.12,132.611"/>
	<path fill="#FFFFFF" stroke="#004684" stroke-width="0.9067" stroke-miterlimit="3.8636" d="M164.577,21.055h3.549
		c2.602-0.594,3.55-2.103,6.219-2.103c1.921,0,2.824,1.275,4.234,1.275c1.191,0,3.021-1.359,5.029-1.359
		c2.05,0,3.063,1.232,4.408,1.805c1.192,0.51,2.756,0.483,4.412,0.483c-0.045,1.19,0,1.896,0,2.893c0,1.021,1.366,0.617,1.366,2.275
		c0,1.742-1.769,1.402-1.769,2.103l-0.062,6.478c0.09,0.807,1.723,0.914,1.723,2.145c0,1.827-1.819,1.196-1.702,2.634
		c0.091,1.062,0,3.315,0,3.315c-3.505,0-26.055,0.206-27.155,0.164c0.065-2.401,0.438-2.257,0.521-3.414
		c0.066-0.935-2.027-1.508-2.027-3.081c0-1.083,1.255-1.019,1.365-2.039v-6.456c-0.066-0.85-1.962-1.274-1.896-2.485
		c0.077-1.449,1.763-1.264,1.763-2.231C164.555,23.031,164.6,21.459,164.577,21.055z"/>
	<path fill="none" stroke="#004684" stroke-width="0.9067" stroke-miterlimit="3.8636" d="M167.466,21.162
		c0,0,0.045,14.443,0,17.843c0,0,21.038,0.04,21.961-0.044c0-3.844-0.021-17.906-0.021-17.906"/>
	
		<line fill="none" stroke="#004684" stroke-width="0.9067" stroke-miterlimit="3.8636" x1="178.468" y1="20.269" x2="178.468" y2="39.045"/>
	<path fill="#004684" stroke="#004684" stroke-width="0.9067" stroke-miterlimit="3.8636" d="M178.801,36.731
		c0.928,0.042,2.625,0.667,4.28,1.167c2.137,0.648,4.405,0.195,6.083,0.531c0.53,0.107-10.363,0.192-10.363,0.192
		C178.843,36.518,178.801,36.731,178.801,36.731z"/>
	<g>
		
			<ellipse fill="#004684" stroke="#004684" stroke-width="0.9067" stroke-miterlimit="3.8636" cx="178.457" cy="39.513" rx="1.226" ry="0.851"/>
		<path fill="#004684" stroke="#004684" stroke-width="0.9067" stroke-miterlimit="3.8636" d="M178.459,39.513"/>
	</g>
	<path fill="#004684" stroke="#004684" stroke-width="0.9067" stroke-miterlimit="3.8636" d="M177.858,36.731
		c-0.927,0.042-2.626,0.667-4.279,1.167c-2.138,0.648-4.405,0.195-6.083,0.531c-0.53,0.107,10.362,0.192,10.362,0.192
		C177.813,36.518,177.858,36.731,177.858,36.731z"/>
	<path fill="#FFFFFF" stroke="#004684" stroke-width="0.9061" stroke-miterlimit="3.8636" d="M105.583,44.885
		c0.352,1.382,1.39,2.294,3.085,2.294c3.156,0,6.198-2.336,8.027-3.652c1.435-1.021,2.912-2.102,2.912-4.333l-0.264,0.849
		c0,0,2.47-2.463,8.555-0.51c1.691,0.543,8.931,4.61,10.496,5.269c1.347,0.574,6.061,3.956,13.428,2.651
		c0,0,11.251-1.546,8.737-13.133c-1.796-8.279-1.239-8.868-0.555-11.524c-0.263-0.127-6.88-1.613-6.705,7.561
		c-2.867,0.299-6.526,2.464-4.145,8.157c0.97-1.445,2.271-2.972,4.058-2.972c1.124,0,2.31,1.614,2.382,2.803
		c0.176,2.888-2.734,4.162-6.351,3.568c-1.834-0.302-3.521-2.333-6.048-4.163c0.44-0.211,0.843-1.7,0.843-2.294
		c0-1.466-1.256-2.146-2.115-2.635c0.177-0.51,0.527-1.19,0.527-1.699c0-1.168-1.653-1.083-2.293-1.529
		c0.263-0.361,0.263-0.148,0.263-0.68c0-1.7,0.268-2.635-3.172-2.549c0.286-1.678-0.067-2.761-1.236-3.229l-2.559-0.339
		c-1.588-0.297-0.002-0.825-1.47-2.237c-1.307-1.262-3.459,0-3.459,0c0-1.169-0.803-2.096-2.214-2.096
		c-0.752,0-1.676,0.064-2.205,0.341l-1.06,0.85c-1.322,0-1.652-1.19-3.176-1.19c-1.521,0-2.138,1.19-2.732,1.956
		c-1.038-0.489-1.17-1.36-2.558-1.36c-0.817,0-1.06,0.871-1.412,1.274c-0.905,0.998-0.841,2.033-2.25,2.543l-0.526-0.923
		c-0.016-0.059-0.031-0.118-0.047-0.177c-2.074,1-6.749,11.66-6.749,13.849c0,2.082,1.809,1.169,1.809,3.399
		c0,1.316-1.937,2.274-1.937,3.399c0,1.423,1.651,2.123,3.084,2.123L105.583,44.885z"/>
	<path fill="#004684" stroke="#004684" stroke-width="0.9067" stroke-miterlimit="3.8636" d="M110.456,35.929
		c0,0,2.293,0.882,2.293,1.359c0,0.646-1.483,1.358-2.469,2.208h-1.235c0.441-1.443,0-0.917,0-2.208
		C109.045,36.318,110.066,35.929,110.456,35.929z"/>
	<path fill="none" stroke="#004684" stroke-width="0.9067" stroke-miterlimit="3.8636" d="M118.835,32.018
		c1.191-0.573,0.639-2.039,2.56-2.039c1.695,0,2.336,1.189,3.88,1.189c1.037,0,1.764-1.02,3.174-1.02c1.257,0,2.912,1.7,2.646,3.737
		c0,0,4.409-1.443,4.233,3.314c3.528-1.189,3.177,1.72,3.528,3.145c0.355,1.359,2.646,0.255,2.294,3.142"/>
	<path fill="#FFFFFF" stroke="#004684" stroke-width="0.9067" stroke-miterlimit="3.8636" d="M71.759,21.17h3.552
		c2.603-0.595,3.551-2.105,6.218-2.105c1.921,0,2.823,1.275,4.233,1.275c1.189,0,3.022-1.359,5.028-1.359
		c2.052,0,3.066,1.232,4.412,1.805c1.188,0.51,2.754,0.483,4.409,0.483c-0.044,1.19,0,1.897,0,2.895
		c0,1.021,1.367,0.617,1.367,2.272c0,1.742-1.766,1.403-1.766,2.103l-0.065,6.479c0.089,0.806,1.719,0.913,1.719,2.145
		c0,1.827-1.814,1.194-1.694,2.633c0.087,1.064,0,3.315,0,3.315c-3.509,0-25.581,0.021-26.683-0.023
		c0.067-2.399-0.037-2.07,0.043-3.228c0.066-0.935-2.028-1.508-2.028-3.081c0-1.082,1.255-1.019,1.365-2.038v-6.458
		c-0.063-0.848-1.962-1.274-1.896-2.485c0.082-1.448,1.767-1.262,1.767-2.23C71.739,23.146,71.782,21.573,71.759,21.17z"/>
	<path fill="none" stroke="#004684" stroke-width="0.9067" stroke-miterlimit="3.8636" d="M74.648,21.276c0,0,0.044,14.442,0,17.843
		c0,0,21.038,0.042,21.963-0.044c0-3.844-0.022-17.904-0.022-17.904"/>
	
		<line fill="none" stroke="#004684" stroke-width="0.9067" stroke-miterlimit="3.8636" x1="85.653" y1="20.382" x2="85.653" y2="39.16"/>
	<path fill="#004684" stroke="#004684" stroke-width="0.9067" stroke-miterlimit="3.8636" d="M85.982,36.845
		c0.928,0.044,2.628,0.668,4.279,1.167c2.139,0.648,4.406,0.195,6.085,0.531c0.531,0.106-10.364,0.192-10.364,0.192
		C86.026,36.632,85.982,36.845,85.982,36.845z"/>
	<g>
		<path fill="#004684" stroke="#004684" stroke-width="0.9067" stroke-miterlimit="3.8636" d="M84.416,39.628
			c0-0.471,0.55-0.851,1.228-0.851c0.675,0,1.221,0.379,1.221,0.851c0,0.468-0.546,0.848-1.221,0.848
			C84.966,40.477,84.416,40.097,84.416,39.628z"/>
		<path fill="#004684" stroke="#004684" stroke-width="0.9067" stroke-miterlimit="3.8636" d="M85.644,39.628"/>
	</g>
	<path fill="#004684" stroke="#004684" stroke-width="0.9067" stroke-miterlimit="3.8636" d="M85.042,36.845
		c-0.927,0.044-2.627,0.668-4.278,1.167c-2.137,0.648-4.404,0.195-6.087,0.531c-0.528,0.106,10.365,0.192,10.365,0.192
		C84.996,36.632,85.042,36.845,85.042,36.845z"/>
	<g>
		
			<ellipse fill="#FFFFFF" stroke="#004684" stroke-width="0.9067" stroke-miterlimit="3.8636" cx="100.635" cy="104.537" rx="11.388" ry="10.972"/>
		<path fill="#FFFFFF" stroke="#004684" stroke-width="0.9067" stroke-miterlimit="3.8636" d="M100.635,104.537"/>
	</g>
	<g>
		
			<ellipse fill="#FFFFFF" stroke="#004684" stroke-width="0.9061" stroke-miterlimit="3.8636" cx="131.941" cy="78.188" rx="11.387" ry="10.969"/>
		<path fill="#FFFFFF" stroke="#004684" stroke-width="0.9061" stroke-miterlimit="3.8636" d="M131.941,78.188"/>
	</g>
	<g>
		<path fill="#FFFFFF" stroke="#004684" stroke-width="0.9067" stroke-miterlimit="3.8636" d="M150.093,104.537
			c0-6.06,5.098-10.972,11.389-10.972c6.288,0,11.387,4.912,11.387,10.972c0,6.059-5.099,10.966-11.387,10.966
			C155.19,115.503,150.093,110.596,150.093,104.537z"/>
		<path fill="#FFFFFF" stroke="#004684" stroke-width="0.9067" stroke-miterlimit="3.8636" d="M161.481,104.537"/>
	</g>
	<path fill="none" stroke="#004684" stroke-width="0.9067" stroke-miterlimit="3.8636" d="M143.364,37.3
		c-2.909-3.205-5.478-6.964-5.918-7.152c-1.434-0.595-4.853-7.392-14.024-7.9c-2.33-0.131-11.102,0.722-11.404,2.966"/>
	<path fill="none" stroke="#004684" stroke-width="0.9067" stroke-miterlimit="3.8636" d="M119.664,39.77
		c0.034-0.219,0.053-0.454,0.053-0.701c0-0.363-2.149-0.157-2.661-0.31c-0.353-0.106,0.948-0.624,0.721-0.624
		c1.324-0.51,4.712-2.002,3.529-3.144c-1.147-1.106-1.832-2.273-2.471-2.974c-0.859-0.935-1.874-1.445-3.441-1.445
		c-1.344,0-3.522,2.333-4.429,2.973c0.663-0.639,2.578-2.293,2.578-3.652c0-3.059-2.447-5.714-3.087-8.241"/>
	<path fill="none" stroke="#004684" stroke-width="0.9067" stroke-miterlimit="3.8636" d="M106.479,44.421
		c2.423,0,3.79-0.168,4.938-0.764c1.258-0.659,3.529-2.081,4.06-3.312"/>
	<path fill="none" stroke="#004684" stroke-width="1.7972" stroke-miterlimit="3.8636" d="M66.795,11.202h130.517
		c0,0,0,64.119,0,65.251c-0.882,53.185-60.484,81.141-67.981,80.885c-7.796-0.268-62.713-27.622-62.548-81.162
		C66.784,75.212,66.795,11.202,66.795,11.202z"/>
</g>
</svg>
